<svg width="38" height="39" viewBox="0 0 38 39" fill="none" xmlns="http://www.w3.org/2000/svg">
<g id="&#240;&#159;&#166;&#134; icon &#34;circle facebook&#34;">
<path id="Vector" d="M18.8237 0.349121C21.4294 0.349121 23.8778 0.843299 26.169 1.83166C28.4602 2.82001 30.4593 4.16777 32.1665 5.87493C33.8737 7.58209 35.2214 9.57378 36.2098 11.85C37.1981 14.1262 37.6923 16.5671 37.6923 19.1728C37.6923 21.7785 37.1981 24.2269 36.2098 26.5181C35.2214 28.8093 33.8737 30.8085 32.1665 32.5156C30.4593 34.2228 28.4602 35.5705 26.169 36.5589C23.8778 37.5473 21.4294 38.0414 18.8237 38.0414C16.218 38.0414 13.7771 37.5473 11.5009 36.5589C9.22466 35.5705 7.23297 34.2228 5.52581 32.5156C3.81865 30.8085 2.47089 28.8093 1.48253 26.5181C0.494178 24.2269 0 21.7785 0 19.1728C0 16.5671 0.494178 14.1262 1.48253 11.85C2.47089 9.57378 3.81865 7.58209 5.52581 5.87493C7.23297 4.16777 9.22466 2.82001 11.5009 1.83166C13.7771 0.843299 16.218 0.349121 18.8237 0.349121ZM25.9219 8.57045H21.9235C21.1448 8.57045 20.426 8.70522 19.7671 8.97478C19.1082 9.24433 18.5317 9.60373 18.0375 10.053C17.5433 10.5022 17.1615 11.0114 16.8919 11.5804C16.6224 12.1495 16.4876 12.7185 16.4876 13.2876V15.6686H12.9385V20.3409H16.4876V29.7752H21.2047V20.3409H24.7089V15.6686H21.2047V14.4557C21.2047 14.0963 21.347 13.8117 21.6315 13.6021C21.916 13.3924 22.1631 13.2876 22.3728 13.2876H25.9219V8.57045Z" fill="#77D5D0"/>
</g>
</svg>
