<svg width="56" height="66" viewBox="0 0 56 66" fill="none" xmlns="http://www.w3.org/2000/svg">
<path d="M55.9597 27.8745C55.8521 27.1754 55.5391 26.5263 55.0623 26.0132C54.5856 25.5001 53.9675 25.1473 53.2901 25.0015L45.0423 23.1485C44.1578 22.9512 43.2422 22.9505 42.3574 23.1463C41.4726 23.3421 40.6393 23.7298 39.9137 24.2833L15.5356 42.4405L8.70694 42.1532C8.15799 42.1331 7.61681 42.2903 7.16026 42.6026C6.70372 42.9149 6.35501 43.3663 6.16367 43.8927C5.97234 44.4191 5.9481 44.9937 6.09441 45.535C6.24072 46.0763 6.55012 46.5567 6.97869 46.908L14.0041 52.5534C14.8471 53.602 15.4092 53.4009 29.3616 45.6295L30.6683 59.1612C30.6901 59.5303 30.8138 59.8856 31.0253 60.1856C31.2367 60.4857 31.5271 60.7182 31.8626 60.8563C32.1041 60.9538 32.3618 61.0026 32.6214 60.9999C33.144 60.9836 33.6431 60.7743 34.0265 60.4109L37.3846 57.2794C37.719 56.9627 37.9455 56.5449 38.0309 56.0871L41.1081 38.9929C46.1242 36.1199 50.8734 33.4193 54.2596 31.4514C54.8654 31.103 55.3528 30.5738 55.6566 29.9347C55.9604 29.2955 56.0662 28.5768 55.9597 27.8745ZM52.8686 28.9519C49.3559 30.9917 44.4381 33.8503 39.155 36.8095L38.5789 37.1398L35.3051 55.3401L33.2396 57.265L31.694 41.0327L29.8253 42.0095C19.7509 47.7555 16.3927 49.4218 15.2406 49.9389L9.19871 45.0405L16.3365 45.3566L41.6279 26.596C42.0255 26.2922 42.4813 26.0775 42.9655 25.9661C43.4498 25.8548 43.9516 25.8491 44.4381 25.9496L52.6578 27.7596C52.7845 27.7831 52.9005 27.8473 52.9889 27.9429C53.0774 28.0385 53.1337 28.1605 53.1496 28.2911C53.1785 28.4175 53.1668 28.55 53.1162 28.6691C53.0655 28.7881 52.9787 28.8873 52.8686 28.9519Z" fill="#FF7D99"/>
<path d="M15.3065 33.6742L20.1634 35L22.4008 33.4223L16.9436 31.8845L19.3994 30.4261L26.8621 30.214L30 28L19.3994 28.3182C19.0652 28.3006 18.733 28.379 18.4444 28.5436L14.8562 30.572C14.5596 30.7427 14.3216 30.995 14.1723 31.297C14.023 31.599 13.969 31.9372 14.0171 32.269C14.0653 32.6007 14.2134 32.9112 14.4428 33.1613C14.6723 33.4114 14.9728 33.5899 15.3065 33.6742Z" fill="#FF7D99"/>
<path d="M22.4 0H11.6V6.50388H5V16.1926H11.6V23.6965H22.4V16.1926H29V6.50388H22.4V0ZM26.4 9.08365V13.6128H19.8V21.1167H14.2V13.6128H7.6V9.08365H14.2V2.57976H19.8V9.08365H26.4Z" fill="#FF7D99"/>
</svg>
