<svg width="54" height="54" viewBox="0 0 54 54" fill="none" xmlns="http://www.w3.org/2000/svg">
<g id="&#240;&#159;&#166;&#134; icon &#34;surgery bed&#34;">
<path id="Vector" d="M52.8463 24.9689V23.8557C52.8463 22.9699 52.4945 22.1204 51.8681 21.4941C51.2418 20.8677 50.3923 20.5159 49.5065 20.5159H4.97592C4.09016 20.5159 3.24066 20.8677 2.61433 21.4941C1.988 22.1204 1.63613 22.9699 1.63613 23.8557V24.9689C1.34087 24.9689 1.05771 25.0862 0.848931 25.295C0.640153 25.5038 0.522863 25.7869 0.522863 26.0822C0.522863 32.7618 0.155485 33.8751 1.63613 33.8751H13.882V36.1016C13.8798 37.2359 14.3106 38.3284 15.0864 39.1559C15.8623 39.9835 16.9247 40.4838 18.0568 40.5546L31.6943 45.7759V47.2342H13.882C8.7165 47.2342 6.89074 53.9138 9.42898 53.9138H45.0535C47.5917 53.9138 45.7771 47.2342 40.6004 47.2342V45.0077C40.6026 43.8734 40.1719 42.7809 39.396 41.9534C38.6202 41.1258 37.5578 40.6255 36.4257 40.5546L22.7882 35.3334V33.8751H52.8463C53.1416 33.8751 53.4248 33.7578 53.6335 33.549C53.8423 33.3402 53.9596 33.057 53.9596 32.7618C53.9596 26.0822 54.327 24.9689 52.8463 24.9689ZM50.6198 23.8557V24.9689H23.9014V22.7424H49.5065C49.8018 22.7424 50.085 22.8597 50.2937 23.0685C50.5025 23.2772 50.6198 23.5604 50.6198 23.8557ZM3.86266 23.8557C3.86266 23.5604 3.97995 23.2772 4.18873 23.0685C4.3975 22.8597 4.68067 22.7424 4.97592 22.7424H21.6749V24.9689H3.86266V23.8557ZM22.5099 37.6156L33.1749 41.6679C32.6378 42.1572 32.2255 42.768 31.9726 43.4491L21.3075 39.4414C21.8506 38.9395 22.2633 38.3128 22.5099 37.6156ZM43.751 51.6873H10.7315C10.9618 51.0359 11.3885 50.4719 11.9528 50.0731C12.517 49.6744 13.1911 49.4604 13.882 49.4608H40.6004C41.2914 49.4604 41.9654 49.6744 42.5297 50.0731C43.0939 50.4719 43.5206 51.0359 43.751 51.6873ZM38.3739 45.0077V47.2342H33.9208V45.0077C33.9208 44.4172 34.1554 43.8509 34.573 43.4333C34.9905 43.0158 35.5568 42.7812 36.1474 42.7812C36.7379 42.7812 37.3042 43.0158 37.7217 43.4333C38.1393 43.8509 38.3739 44.4172 38.3739 45.0077ZM20.5616 36.1016C20.5616 36.6921 20.3271 37.2584 19.9095 37.676C19.4919 38.0935 18.9256 38.3281 18.3351 38.3281C17.7446 38.3281 17.1783 38.0935 16.7607 37.676C16.3432 37.2584 16.1086 36.6921 16.1086 36.1016V33.8751H20.5616V36.1016ZM51.7331 31.6485H2.74939V27.1955H51.7331V31.6485Z" fill="#FF7D99"/>
<path id="Vector_2" d="M36.1474 43.8943C35.8521 43.8943 35.5689 44.0116 35.3602 44.2204C35.1514 44.4291 35.0341 44.7123 35.0341 45.0076C35.0341 45.3028 35.1514 45.586 35.3602 45.7948C35.5689 46.0035 35.8521 46.1208 36.1474 46.1208C36.4426 46.1208 36.7258 46.0035 36.9346 45.7948C37.1433 45.586 37.2606 45.3028 37.2606 45.0076C37.2606 44.7123 37.1433 44.4291 36.9346 44.2204C36.7258 44.0116 36.4426 43.8943 36.1474 43.8943Z" fill="#FF7D99"/>
<path id="Vector_3" d="M18.3351 37.2146C18.6304 37.2146 18.9135 37.0973 19.1223 36.8885C19.3311 36.6797 19.4484 36.3966 19.4484 36.1013C19.4484 35.806 19.3311 35.5229 19.1223 35.3141C18.9135 35.1053 18.6304 34.988 18.3351 34.988C18.0399 34.988 17.7567 35.1053 17.5479 35.3141C17.3391 35.5229 17.2218 35.806 17.2218 36.1013C17.2218 36.3966 17.3391 36.6797 17.5479 36.8885C17.7567 37.0973 18.0399 37.2146 18.3351 37.2146Z" fill="#FF7D99"/>
<path id="Vector_4" d="M17.2218 9.38317H37.2606C39.7989 9.38317 37.9842 2.70358 32.8076 2.70358H31.6943V1.59032C31.6943 1.29506 31.577 1.0119 31.3682 0.803119C31.1594 0.594341 30.8763 0.477051 30.581 0.477051C30.2858 0.477051 30.0026 0.594341 29.7938 0.803119C29.585 1.0119 29.4678 1.29506 29.4678 1.59032V2.70358H25.0147V1.59032C25.0147 1.29506 24.8974 1.0119 24.6886 0.803119C24.4799 0.594341 24.1967 0.477051 23.9014 0.477051C23.6062 0.477051 23.323 0.594341 23.1142 0.803119C22.9055 1.0119 22.7882 1.29506 22.7882 1.59032V2.70358H21.6749C16.5094 2.70358 14.6836 9.38317 17.2218 9.38317ZM21.6749 4.93011H32.8076C33.4985 4.92975 34.1726 5.1437 34.7368 5.54247C35.3011 5.94124 35.7278 6.50521 35.9581 7.15664H18.5244C18.7547 6.50521 19.1814 5.94124 19.7456 5.54247C20.3099 5.1437 20.984 4.92975 21.6749 4.93011Z" fill="#FF7D99"/>
<path id="Vector_5" d="M26.128 11.6096V13.8361C26.128 14.1314 26.2453 14.4146 26.454 14.6233C26.6628 14.8321 26.946 14.9494 27.2412 14.9494C27.5365 14.9494 27.8197 14.8321 28.0284 14.6233C28.2372 14.4146 28.3545 14.1314 28.3545 13.8361V11.6096C28.3545 11.3143 28.2372 11.0312 28.0284 10.8224C27.8197 10.6136 27.5365 10.4963 27.2412 10.4963C26.946 10.4963 26.6628 10.6136 26.454 10.8224C26.2453 11.0312 26.128 11.3143 26.128 11.6096Z" fill="#FF7D99"/>
<path id="Vector_6" d="M21.9978 10.8193L19.7712 13.0459C19.6674 13.1497 19.5851 13.2729 19.5289 13.4085C19.4727 13.5441 19.4438 13.6895 19.4438 13.8363C19.4438 14.1328 19.5616 14.4171 19.7712 14.6267C19.9809 14.8363 20.2652 14.9541 20.5617 14.9541C20.7084 14.9541 20.8538 14.9252 20.9894 14.869C21.125 14.8128 21.2483 14.7305 21.3521 14.6267L23.5786 12.4002C23.7882 12.1905 23.906 11.9062 23.906 11.6098C23.906 11.3133 23.7882 11.029 23.5786 10.8193C23.369 10.6097 23.0846 10.4919 22.7882 10.4919C22.4917 10.4919 22.2074 10.6097 21.9978 10.8193Z" fill="#FF7D99"/>
<path id="Vector_7" d="M30.9039 12.4002L33.1304 14.6267C33.34 14.8363 33.6244 14.9541 33.9208 14.9541C34.2173 14.9541 34.5016 14.8363 34.7112 14.6267C34.9209 14.4171 35.0386 14.1328 35.0386 13.8363C35.0386 13.5398 34.9209 13.2555 34.7112 13.0459L32.4847 10.8193C32.3809 10.7155 32.2577 10.6332 32.1221 10.577C31.9864 10.5209 31.8411 10.4919 31.6943 10.4919C31.3978 10.4919 31.1135 10.6097 30.9039 10.8193C30.8001 10.9231 30.7177 11.0464 30.6616 11.182C30.6054 11.3176 30.5765 11.463 30.5765 11.6098C30.5765 11.9062 30.6942 12.1905 30.9039 12.4002Z" fill="#FF7D99"/>
</g>
</svg>
