<svg width="50" height="50" viewBox="0 0 50 50" fill="none" xmlns="http://www.w3.org/2000/svg">
<g id="&#240;&#159;&#166;&#134; icon &#34;Stethoscope&#34;">
<g id="Group">
<path id="Vector" d="M8.27552 5.55556C9.80969 5.55556 11.0533 4.3119 11.0533 2.77778C11.0533 1.24365 9.80969 0 8.27552 0C7.24733 0 6.34969 0.558611 5.86941 1.38889H5.49774C3.19656 1.38889 1.33108 3.25437 1.33108 5.55556V18.0556H4.10886V5.55556C4.10886 4.7885 4.73069 4.16667 5.49774 4.16667H5.86941C6.34969 4.99694 7.24733 5.55556 8.27552 5.55556Z" fill="#FF7D99"/>
<path id="Vector_2" fill-rule="evenodd" clip-rule="evenodd" d="M5.72024 18.0556H4.10885H1.33107C0.564014 18.0556 -0.0643326 18.6787 0.00527854 19.4426C0.328181 22.986 1.88063 26.3222 4.41699 28.8586C6.2769 30.7185 8.5669 32.0493 11.0533 32.7542V36.1111C11.0533 37.9256 12.213 39.469 13.8316 40.0408C13.8908 45.5512 18.3762 50 23.9005 50C29.4618 50 33.97 45.4918 33.97 39.9306V34.375C33.97 31.4985 36.3018 29.1667 39.1783 29.1667C42.0548 29.1667 44.3866 31.4985 44.3866 34.375V37.7371C42.7683 38.309 41.6088 39.8525 41.6088 41.6667C41.6088 43.9679 43.4743 45.8333 45.7755 45.8333C48.0768 45.8333 49.9422 43.9679 49.9422 41.6667C49.9422 39.8525 48.7827 38.309 47.1644 37.7371V34.375C47.1644 29.9644 43.5888 26.3889 39.1783 26.3889C34.7677 26.3889 31.1922 29.9644 31.1922 34.375V39.9306C31.1922 43.9576 27.9276 47.2222 23.9005 47.2222C19.9101 47.2222 16.6684 44.0168 16.6097 40.0404C18.2276 39.4682 19.3866 37.925 19.3866 36.1111V32.7542C21.873 32.0493 24.1632 30.7185 26.023 28.8586C28.5594 26.3222 30.1118 22.986 30.4347 19.4426C30.5044 18.6787 29.8759 18.0556 29.1088 18.0556V5.55556C29.1088 3.25437 27.2434 1.38889 24.9422 1.38889H24.5705C24.0902 0.558611 23.1926 0 22.1644 0C20.6302 0 19.3866 1.24365 19.3866 2.77778C19.3866 4.3119 20.6302 5.55556 22.1644 5.55556C23.1926 5.55556 24.0902 4.99694 24.5705 4.16667H24.9422C25.7093 4.16667 26.3311 4.7885 26.3311 5.55556V18.0556H24.7198C23.9527 18.0556 23.343 18.6818 23.2123 19.4378C22.929 21.0758 22.1466 22.5996 20.9552 23.7908C19.4343 25.3119 17.3712 26.1665 15.22 26.1665C13.0688 26.1665 11.0058 25.3119 9.48468 23.7908C8.29343 22.5996 7.51093 21.0758 7.2276 19.4378C7.0969 18.6818 6.48718 18.0556 5.72024 18.0556ZM25.7484 20.8333H27.4075C26.8884 23.1106 25.7368 25.2165 24.0588 26.8944C21.7147 29.2386 18.5352 30.5556 15.22 30.5556C11.9048 30.5556 8.72538 29.2386 6.38121 26.8944C4.70325 25.2165 3.55158 23.1106 3.03249 20.8333H4.69153C5.17863 22.6793 6.14718 24.3817 7.52051 25.755C9.5626 27.7971 12.3322 28.9443 15.22 28.9443C18.1079 28.9443 20.8775 27.7971 22.9195 25.755C24.2929 24.3817 25.2613 22.6793 25.7484 20.8333ZM45.7755 40.2778C46.5426 40.2778 47.1644 40.8996 47.1644 41.6667C47.1644 42.4338 46.5426 43.0556 45.7755 43.0556C45.0084 43.0556 44.3866 42.4338 44.3866 41.6667C44.3866 40.8996 45.0084 40.2778 45.7755 40.2778ZM16.6088 33.3333V36.1111C16.6088 36.8782 15.987 37.5 15.22 37.5C14.4529 37.5 13.8311 36.8782 13.8311 36.1111V33.3333H16.6088Z" fill="#FF7D99"/>
</g>
</g>
</svg>
