<?xml version="1.0" encoding="UTF-8"?>
<svg id="Camada_1" data-name="Camada 1" xmlns="http://www.w3.org/2000/svg" version="1.1" viewBox="0 0 51 54">
  <defs>
    <style>
      .cls-1 {
        fill: #ff7d99;
        stroke-width: 0px;
      }
    </style>
  </defs>
  <path class="cls-1" d="M16.72,21.02c-.47.55-.79,1.18-1.26,1.89-.79-1.1-1.34-2.2-2.2-2.99-1.89-2.12-4.17-3.38-7-2.6-2.91.71-4.33,2.83-5.04,5.59-2.2,8.81,2.6,20.69,9.6,27.3.79.79,1.73,1.57,2.75,2.05,2.2,1.02,4.41,1.81,6.85,1.1,4.49-1.1,7.47-6.69,9.68-10.54,3.62-6.37,8.26-16.84,5.04-24.31-3.54-8.26-14.01-4.25-18.41,2.52Z"/>
  <g>
    <path class="cls-1" d="M46.25,6.83c1.75,1.28,1.22,4.97-.43,7.22s-4.4,3.04-6.14,1.76-1.83-4.14-.18-6.39,5-3.87,6.75-2.59Z"/>
    <path class="cls-1" d="M37.71,1.57c1.75,1.28,1.22,4.97-.43,7.22s-4.4,3.04-6.14,1.76-1.83-4.14-.18-6.39,5-3.87,6.75-2.59Z"/>
    <path class="cls-1" d="M19.93,5.53c.19-2.47,2.01-5.26,3.98-5.11,1.97.15,3.34,3.19,3.15,5.66-.19,2.47-1.94,4.35-3.91,4.2-1.97-.15-3.41-2.28-3.22-4.74Z"/>
    <path class="cls-1" d="M46.73,26.7c-2.32.86-4.76.06-5.45-1.8-.69-1.85.64-4.05,2.96-4.91,2.32-.86,5.62-.37,6.3,1.48.69,1.85-1.5,4.37-3.82,5.23Z"/>
  </g>
</svg>