<svg width="52" height="39" viewBox="0 0 52 39" fill="none" xmlns="http://www.w3.org/2000/svg">
<g id="&#240;&#159;&#166;&#134; icon &#34;ultrasound&#34;">
<path id="Vector" d="M38.2769 4.62817H46.0028V6.20736H38.2769V4.62817Z" fill="#FF7D99"/>
<path id="Vector_2" d="M51.2627 38.9207H0V0H51.2627V38.9207ZM1.57918 37.3416H49.6835V1.57918H1.57918V37.3416Z" fill="#FF7D99"/>
<path id="Vector_3" d="M5.0534 32.4825H14.7107V34.0617H5.0534V32.4825Z" fill="#FF7D99"/>
<path id="Vector_4" d="M5.0534 29.5065H14.7107V31.0857H5.0534V29.5065Z" fill="#FF7D99"/>
<path id="Vector_5" d="M25.6314 11.856C23.5784 11.8682 21.5984 11.03 20.1771 9.54799L21.3068 8.45471C23.6149 10.8356 27.4292 10.8964 29.8101 8.58834C29.8587 8.53975 29.8951 8.5033 29.9437 8.45471L31.0735 9.54799C29.6643 11.03 27.6843 11.8682 25.6314 11.856Z" fill="#FF7D99"/>
<path id="Vector_6" d="M42.8201 20.8816L40.0505 18.197C35.9568 21.7562 31.1949 23.8456 26.2144 24.2465L25.4248 24.3072L25.3034 22.728L26.093 22.6673C30.6969 22.3028 35.1064 20.3714 38.9208 17.0915L32.847 11.2C32.6891 11.0542 32.4461 11.0542 32.3004 11.2C28.6075 14.8321 22.6795 14.8321 18.9866 11.2C18.8409 11.0542 18.5979 11.0421 18.44 11.2L14.2127 15.2937C16.4721 17.3831 19.1081 18.6343 22.8253 19.3996L23.6027 19.5575L23.2869 21.1002L22.5094 20.9423C18.4522 20.1163 15.5732 18.7315 13.0829 16.3991L8.46687 20.8816C8.30895 21.0274 8.30895 21.2825 8.45472 21.4282C17.8205 30.9276 33.1021 31.0369 42.6015 21.6712C42.6865 21.5861 42.7594 21.5133 42.8444 21.4282C42.9781 21.2825 42.9781 21.0274 42.8201 20.8816Z" fill="#FF7D99"/>
</g>
</svg>
