<svg width="42" height="45" viewBox="0 0 42 45" fill="none" xmlns="http://www.w3.org/2000/svg">
<g id="&#240;&#159;&#166;&#134; icon &#34;laboratory medical&#34;">
<path id="Vector" d="M41.0906 36.4723L27.4654 15.51V5.48937H30.6308V0H11.3031V5.49493H14.4944V15.5155L0.843236 36.4723C0.315055 37.271 0 38.2514 0 39.3041C0 42.1618 2.31658 44.4784 5.17432 44.4784H5.17988H36.7429C39.6043 44.4728 41.9227 42.1525 41.9227 39.2892C41.9227 38.2421 41.6132 37.2673 41.0795 36.4519L41.0925 36.4723H41.0906ZM39.4134 40.7385C38.8908 41.6892 37.8974 42.3212 36.7558 42.3212C36.7521 42.3212 36.7484 42.3212 36.7447 42.3212H5.17988H5.17432C3.49897 42.3212 2.14238 40.9646 2.14238 39.2892C2.14238 38.6777 2.324 38.1069 2.63534 37.6306L2.62793 37.6417L16.6182 16.1438V5.48567H25.3026V16.1494L39.2781 37.6472C39.5932 38.1124 39.7822 38.6869 39.7822 39.3059C39.7822 39.8341 39.6451 40.3308 39.4041 40.7607L39.4116 40.7459L39.4134 40.7385Z" fill="#FF7D99"/>
<path id="Vector_2" d="M26.7111 22.8896H15.2376L4.75734 39.0094C4.70174 39.0928 4.66838 39.1947 4.66838 39.304C4.66838 39.3985 4.69247 39.4856 4.7351 39.5635L4.73325 39.5616C4.82591 39.7229 4.99641 39.8304 5.19286 39.8322H36.7558C36.9523 39.8322 37.1246 39.7247 37.2154 39.5635L37.2173 39.5616C37.2581 39.4875 37.284 39.3985 37.284 39.3059C37.284 39.1965 37.2507 39.0928 37.1932 39.0094L37.1951 39.0112L26.7111 22.8896Z" fill="#FF7D99"/>
</g>
</svg>
