<?xml version="1.0" encoding="UTF-8"?>
<svg id="Camada_1" data-name="Camada 1" xmlns="http://www.w3.org/2000/svg" version="1.1" viewBox="0 0 500 237">
  <defs>
    <style>
      .cls-1 {
        fill: #fff;
        stroke-width: 0px;
      }
    </style>
  </defs>
  <g>
    <path class="cls-1" d="M32.63,230.79c0-3.63,2.78-6.2,6.56-6.2,2.2,0,3.97.8,5.13,2.25l-2.15,1.94c-.75-.9-1.67-1.4-2.81-1.4-1.96,0-3.32,1.36-3.32,3.41s1.36,3.41,3.32,3.41c1.14,0,2.06-.49,2.81-1.4l2.15,1.94c-1.16,1.45-2.93,2.25-5.13,2.25-3.78,0-6.56-2.57-6.56-6.2Z"/>
    <path class="cls-1" d="M50.39,231.43v-6.61h3.37v6.51c0,2.05.85,2.86,2.27,2.86s2.25-.82,2.25-2.86v-6.51h3.32v6.61c0,3.56-2.08,5.56-5.61,5.56s-5.61-1.99-5.61-5.56Z"/>
    <path class="cls-1" d="M68.7,224.82h3.37v11.93h-3.37v-11.93Z"/>
    <path class="cls-1" d="M79.29,224.82h5.64c3.95,0,6.66,2.3,6.66,5.97s-2.71,5.97-6.66,5.97h-5.64v-11.93ZM84.79,234.06c2.03,0,3.39-1.21,3.39-3.27s-1.36-3.27-3.39-3.27h-2.13v6.54h2.13Z"/>
    <path class="cls-1" d="M106,234.43h-5.04l-.94,2.32h-3.44l5.27-11.93h3.32l5.28,11.93h-3.51l-.94-2.32ZM105.01,231.94l-1.53-3.82-1.53,3.82h3.07Z"/>
    <path class="cls-1" d="M116.21,224.82h5.64c3.95,0,6.66,2.3,6.66,5.97s-2.71,5.97-6.66,5.97h-5.64v-11.93ZM121.71,234.06c2.03,0,3.39-1.21,3.39-3.27s-1.36-3.27-3.39-3.27h-2.13v6.54h2.13Z"/>
    <path class="cls-1" d="M134.48,230.79c0-3.58,2.81-6.2,6.63-6.2s6.63,2.63,6.63,6.2-2.81,6.2-6.63,6.2-6.63-2.62-6.63-6.2ZM144.33,230.79c0-2.06-1.41-3.41-3.22-3.41s-3.22,1.35-3.22,3.41,1.41,3.41,3.22,3.41,3.22-1.35,3.22-3.41Z"/>
    <path class="cls-1" d="M176.19,224.82l-5.11,11.93h-3.32l-5.1-11.93h3.65l3.24,7.77,3.31-7.77h3.34Z"/>
    <path class="cls-1" d="M191.27,234.14v2.61h-9.58v-11.93h9.36v2.61h-6.02v2.01h5.3v2.52h-5.3v2.18h6.24Z"/>
    <path class="cls-1" d="M200.5,227.5h-3.66v-2.68h10.69v2.68h-3.65v9.25h-3.37v-9.25Z"/>
    <path class="cls-1" d="M223.17,234.14v2.61h-9.58v-11.93h9.36v2.61h-6.02v2.01h5.3v2.52h-5.3v2.18h6.24Z"/>
    <path class="cls-1" d="M235.06,233.58h-1.84v3.17h-3.37v-11.93h5.45c3.26,0,5.3,1.69,5.3,4.41,0,1.76-.85,3.05-2.33,3.77l2.57,3.75h-3.61l-2.16-3.17ZM235.1,227.48h-1.87v3.49h1.87c1.4,0,2.1-.65,2.1-1.74s-.7-1.76-2.1-1.76Z"/>
    <path class="cls-1" d="M247.27,224.82h3.37v11.93h-3.37v-11.93Z"/>
    <path class="cls-1" d="M269.2,224.82v11.93h-2.78l-5.27-6.36v6.36h-3.31v-11.93h2.78l5.27,6.36v-6.36h3.31Z"/>
    <path class="cls-1" d="M284.39,234.43h-5.04l-.94,2.32h-3.44l5.27-11.93h3.32l5.28,11.93h-3.51l-.94-2.32ZM282.55,223.85h-2.32l2.28-2.59h3.24l-3.2,2.59ZM283.4,231.94l-1.53-3.82-1.53,3.82h3.07Z"/>
    <path class="cls-1" d="M299.82,233.58h-1.84v3.17h-3.37v-11.93h5.45c3.25,0,5.3,1.69,5.3,4.41,0,1.76-.85,3.05-2.33,3.77l2.57,3.75h-3.61l-2.16-3.17ZM299.85,227.48h-1.87v3.49h1.87c1.4,0,2.1-.65,2.1-1.74s-.7-1.76-2.1-1.76Z"/>
    <path class="cls-1" d="M312.02,224.82h3.37v11.93h-3.37v-11.93Z"/>
    <path class="cls-1" d="M322,230.79c0-3.58,2.81-6.2,6.63-6.2s6.63,2.63,6.63,6.2-2.81,6.2-6.63,6.2-6.63-2.62-6.63-6.2ZM331.85,230.79c0-2.06-1.41-3.41-3.22-3.41s-3.22,1.35-3.22,3.41,1.41,3.41,3.22,3.41,3.22-1.35,3.22-3.41Z"/>
    <path class="cls-1" d="M362.95,224.82v11.93h-2.78l-5.27-6.36v6.36h-3.31v-11.93h2.78l5.27,6.36v-6.36h3.31Z"/>
    <path class="cls-1" d="M369.54,230.79c0-3.58,2.81-6.2,6.63-6.2s6.63,2.63,6.63,6.2-2.81,6.2-6.63,6.2-6.63-2.62-6.63-6.2ZM379.39,230.79c0-2.06-1.41-3.41-3.22-3.41s-3.22,1.35-3.22,3.41,1.41,3.41,3.22,3.41,3.22-1.35,3.22-3.41Z"/>
    <path class="cls-1" d="M399.14,224.82h3.37v9.25h5.69v2.68h-9.07v-11.93Z"/>
    <path class="cls-1" d="M422.48,234.43h-5.04l-.94,2.32h-3.44l5.27-11.93h3.32l5.28,11.93h-3.51l-.94-2.32ZM421.49,231.94l-1.53-3.82-1.53,3.82h3.07Z"/>
    <path class="cls-1" d="M437.9,233.58h-1.84v3.17h-3.37v-11.93h5.45c3.25,0,5.3,1.69,5.3,4.41,0,1.76-.85,3.05-2.33,3.77l2.57,3.75h-3.61l-2.16-3.17ZM437.94,227.48h-1.87v3.49h1.87c1.4,0,2.1-.65,2.1-1.74s-.7-1.76-2.1-1.76Z"/>
  </g>
  <g>
    <path class="cls-1" d="M97.38,136.65c-1.84,11.64-7.13,21.37-15.89,29.18-8.76,7.81-19.22,11.17-31.38,10.07-.47,6.03-1.04,11.12-1.69,15.26-.66,4.14-1.38,6.69-2.16,7.63-1.1,2.05-6.48,3.28-16.12,3.7-9.65.42-16.47-.24-20.45-1.97-1.78-.79-3.37-6.04-4.76-15.77-1.39-9.73-2.52-20.67-3.38-32.84-.87-12.16-1.43-23.87-1.69-35.12s-.21-18.79.16-22.61c.37-3.57,3.39-6.29,9.08-8.18,5.69-1.89,12.28-3.07,19.78-3.54,7.5-.47,15.05-.3,22.65.51,7.6.81,13.53,2.11,17.78,3.89,22.39,9.44,31.75,26.03,28.08,49.79ZM63.56,127.21c-1.21-5.66-5.03-8.84-11.48-9.52-1.21-.05-2.18-.03-2.91.08-5.03.89-7.31,4.48-6.84,10.78.47,6.29,2.15,10.38,5.03,12.27,1.26.89,3.17,1.1,5.74.63,3.83-.58,6.7-2.21,8.61-4.92,1.91-2.7,2.53-5.81,1.85-9.32Z"/>
    <path class="cls-1" d="M109.57,199.97c-1-1.05-1.52-2.33-1.57-3.85-.1-5.09.79-12.74,2.67-22.97,1.89-10.23,4.25-20.86,7.08-31.89,2.83-11.04,5.83-21.38,9.01-31.03,3.17-9.65,5.94-16.44,8.3-20.37.94-1.52,3.71-2.9,8.3-4.13,4.59-1.23,9.66-2.08,15.22-2.56,5.56-.47,10.91-.46,16.05.04,5.14.5,8.73,1.69,10.78,3.58,2.94,2.83,6.41,9.05,10.42,18.64,4.01,9.6,7.93,20.04,11.76,31.34,3.83,11.3,7.26,22.14,10.3,32.52,3.04,10.38,5.06,17.72,6.06,22.02.68,3.15.47,5.34-.63,6.57-1.1,1.23-3.02,2.08-5.74,2.56-4.61.79-10.34,1.38-17.19,1.77-6.84.39-11.13.48-12.86.27-.68-.1-1.31-.34-1.89-.71-1.89-1.15-3.71-4.47-5.47-9.95-1.76-5.48-3.47-9.24-5.15-11.29-1-1.21-2.31-1.91-3.93-2.12l-12.9-.08c-4.04.11-6.66,1.44-7.87,4.01-1.57,3.3-3.36,6.97-5.35,11.01-1.99,4.04-3.46,6.53-4.4,7.47-.47.58-1.18.97-2.12,1.18-2.15.47-7.22.59-15.22.35-8-.24-12.55-1.04-13.65-2.4ZM160.54,130.59c-1.73,1.84-3.45,4.92-5.15,9.24-1.7,4.33-2.32,7.17-1.85,8.53.79,2.31,4.18,3.34,10.19,3.11,6-.24,9.27-1.69,9.79-4.37.31-1.62-1.26-5.34-4.72-11.13-3.46-5.79-6.21-7.59-8.26-5.39Z"/>
    <path class="cls-1" d="M357.96,198.55c-.42,1.15-2.73,2.08-6.92,2.79-4.2.71-8.89,1.1-14.08,1.18-5.19.08-10.16-.12-14.9-.59-4.75-.47-7.8-1.34-9.16-2.6-2.15-1.68-4.84-4.53-8.06-8.57-3.22-4.04-5.7-7.21-7.43-9.52-2.04,2.83-4.35,6-6.92,9.52-2.57,3.51-5.14,6.37-7.71,8.57-1.42,1.15-4.47,1.95-9.16,2.4-4.69.45-9.62.62-14.79.51-5.17-.1-9.86-.48-14.08-1.14-4.22-.66-6.54-1.51-6.96-2.56-3.15-7.45-5.74-17.09-7.79-28.94-2.05-11.85-3.61-23.57-4.68-35.16-1.08-11.59-1.63-21.85-1.65-30.79-.03-8.94.38-14.25,1.22-15.93.37-1.05,2.2-2.06,5.51-3.03,3.3-.97,7.08-1.72,11.33-2.24,4.25-.52,8.47-.77,12.66-.75,4.19.03,7.37.51,9.52,1.45,2.04.94,3.92,7.18,5.62,18.72,1.7,11.54,3.5,23.83,5.39,36.89,1.52-1.62,5.16-5.61,10.93-11.96,5.77-6.34,9.67-9.6,11.72-9.75,1.84-.16,5.36,3.08,10.58,9.71,5.22,6.63,8.43,10.68,9.64,12.15,1.42-13.06,2.94-25.38,4.56-36.97,1.62-11.59,3.46-17.85,5.51-18.8,2.04-.94,5.12-1.43,9.24-1.45,4.12-.03,8.26.22,12.43.75,4.17.53,7.9,1.27,11.21,2.24,3.3.97,5.16,1.98,5.58,3.03.94,1.68,1.49,6.96,1.65,15.85s-.11,19.11-.79,30.67c-.68,11.56-1.8,23.28-3.34,35.16-1.55,11.88-3.5,21.59-5.86,29.14Z"/>
    <path class="cls-1" d="M432.29,120.84c-1.1.11-2.1-.18-2.99-.87-1.1-.79-1.67-1.65-1.69-2.6-.03-.94-.56-1.84-1.61-2.67-2.62-2.04-5.95-1.68-9.99,1.1-4.04,2.78-2.36,4.93,5.03,6.45.79.16,1.65.33,2.6.51.94.18,1.91.35,2.91.51,12.06,2.1,21.58,5.69,28.55,10.78,8.6,6.29,13.54,14.51,14.83,24.66,1.28,10.15-1.53,19.23-8.46,27.25-8.18,9.49-19.26,14.93-33.23,16.32-13.97,1.39-26.05-1.53-36.22-8.77-8.76-6.13-14.24-13.87-16.44-23.2-.94-4.4,1.26-7.81,6.61-10.23,2.36-1.1,4.97-1.89,7.83-2.36,2.86-.47,5.6-.73,8.22-.79,4.3,0,8.18.51,11.64,1.53,3.46,1.02,5.43,2.48,5.9,4.37.05.37.18.73.39,1.1.58,1.31,1.68,2.28,3.3,2.91,1.94.79,4.21.67,6.8-.35,2.6-1.02,3.34-2.77,2.24-5.23-.58-1.15-2.15-2.1-4.72-2.83-6.14-1.78-12.24-3.13-18.33-4.05-6.08-.92-11.85-3.39-17.3-7.43-3.93-2.83-7.01-6.71-9.24-11.64-2.23-4.93-2.98-11.46-2.24-19.59,1.05-10.96,6.32-19.98,15.81-27.06,5.56-4.14,11.9-6.91,19.03-8.3,7.13-1.39,14.05-1.39,20.76,0,6.71,1.39,12.75,4.17,18.13,8.34s9.08,9.71,11.13,16.64c.79,2.67.04,4.97-2.24,6.88-2.28,1.91-5.13,3.5-8.53,4.76-3.41,1.26-6.9,2.2-10.46,2.83-3.57.63-6.24.97-8.02,1.02Z"/>
  </g>
  <g>
    <path class="cls-1" d="M486.2,58.73c5.31,3.88,3.71,15.11-1.3,21.95-5.01,6.84-13.37,9.24-18.68,5.36s-5.56-12.58-.55-19.42c5.01-6.84,15.22-11.77,20.53-7.89Z"/>
    <path class="cls-1" d="M460.22,42.73c5.31,3.88,3.71,15.11-1.3,21.95-5.01,6.84-13.37,9.24-18.68,5.36-5.31-3.88-5.56-12.58-.55-19.42,5.01-6.84,15.22-11.77,20.53-7.89Z"/>
    <path class="cls-1" d="M406.16,54.77c.58-7.51,6.11-16,12.1-15.54,5.99.46,10.16,9.69,9.58,17.2-.58,7.51-5.9,13.22-11.88,12.76-5.99-.46-10.37-6.92-9.8-14.43Z"/>
    <path class="cls-1" d="M487.67,119.15c-7.06,2.61-14.48.17-16.56-5.46-2.08-5.63,1.95-12.32,9.01-14.93,7.06-2.61,17.09-1.13,19.17,4.5,2.08,5.63-4.56,13.28-11.62,15.9Z"/>
  </g>
  <g>
    <path class="cls-1" d="M35.79,30.57c-5.35-3.36-11.96-1.99-16.15,3.57-.31-11.43.11-13.74,1.78-26.32.73-10.28-12.58-10.59-15.1-2.2-4.4,14.47-7.13,50.34-.31,60.72,2.31,3.57,6.5,3.36,9.86,2.41,3.46-.94,6.19-4.09,5.66-9.02-1.26-6.5-1.89-18.98,3.56-18.98,3.78,0,4.93,13.63,4.72,20.97.31,10.28,15.31,9.02,15.21-.31-.11-7.97-.94-25.48-9.23-30.83Z"/>
    <path class="cls-1" d="M69.45,23.65c-.63.73-1.05,1.57-1.68,2.52-1.05-1.47-1.78-2.94-2.94-3.99-2.52-2.83-5.56-4.51-9.33-3.46-3.88.94-5.77,3.78-6.71,7.45-2.94,11.75,3.46,27.58,12.79,36.39,1.05,1.05,2.31,2.1,3.67,2.73,2.94,1.36,5.87,2.41,9.12,1.47,5.98-1.47,9.96-8.91,12.9-14.05,4.83-8.49,11.01-22.44,6.71-32.4-4.72-11.01-18.67-5.66-24.54,3.36Z"/>
    <path class="cls-1" d="M131.74,27.84c-8.49-10.17-12.58-11.01-22.23-4.82-.21-.31-.52-.52-.94-.94-3.36-2.83-7.45-1.47-8.7,3.25-2.31,9.33-2.73,27.37-.1,36.49,1.05,3.67,3.67,5.77,6.71,5.66,5.66-.21,7.03-3.99,7.03-9.12,0-3.25-.84-9.02-.73-12.48.42-11.64,6.61-26.43,11.01-8.91,1.47,6.4.21,14.37,1.26,19.82.84,5.03,4.4,5.14,7.24,4.3,2.31-.63,3.88-1.15,4.51-5.03.21-1.78.1-3.57.1-5.24,0-3.88-.63-8.91.11-12.79,1.15-6.08,7.34-11.64,10.7-2.94,1.36,3.57,1.57,14.47,1.15,18.88-.73,5.66-.21,11.75,8.18,11.33,7.34,0,8.81-7.34,9.23-12.9.42-6.92-.1-13.63-2.1-20.24-5.24-17.93-21.71-19.4-32.4-4.3Z"/>
    <path class="cls-1" d="M204.72,48.4c-.73.52-1.26,1.15-1.99,1.68-1.57,1.15-3.04,2.41-4.51,3.46-6.08,4.4-11.12.63-9.75-6.4,1.99.42,4.19.84,6.5.31,8.39-1.36,14.37-11.43,13.11-19.72-1.05-6.19-4.82-9.86-10.38-11.54-8.28-2.73-17.83.52-22.44,10.28-5.14,11.12-5.24,26.64,4.61,36.18,5.35,4.4,11.43,6.29,17.83,4.09,5.98-2.2,9.65-6.82,12.27-12.37.42-.84.52-1.89.52-2.83-.32-3.15-3.25-4.61-5.77-3.15ZM187.94,32.35c.52-6.5,13.84-8.28,11.75-.1-1.78,6.19-12.37,7.03-11.75.1Z"/>
  </g>
</svg>