<svg width="174" height="82" viewBox="0 0 174 82" fill="none" xmlns="http://www.w3.org/2000/svg">
<g id="Logo">
<path id="Vector" d="M11.8367 79.8999C11.8367 78.6928 12.7628 77.8022 14.0123 77.8022C14.6173 77.8022 15.1631 78.0034 15.531 78.4033L15.252 78.6806C14.9137 78.3395 14.4988 78.1923 14.0247 78.1923C13.0221 78.1923 12.2689 78.9234 12.2689 79.8999C12.2689 80.8763 13.0221 81.6075 14.0247 81.6075C14.4988 81.6075 14.9137 81.4602 15.252 81.1119L15.531 81.3891C15.1631 81.789 14.6173 81.9951 14.0074 81.9951C12.7628 81.9951 11.8367 81.1045 11.8367 79.8974V79.8999Z" fill="white"/>
<path id="Vector_2" d="M18.0943 80.2017V77.8391H18.5339V80.1845C18.5339 81.1634 18.9956 81.6099 19.8031 81.6099C20.6107 81.6099 21.0774 81.1609 21.0774 80.1845V77.8391H21.5046V80.2017C21.5046 81.3867 20.865 82 19.8031 82C18.7413 82 18.0943 81.3867 18.0943 80.2017Z" fill="white"/>
<path id="Vector_3" d="M24.5 77.8391H24.9396V81.9632H24.5V77.8391Z" fill="white"/>
<path id="Vector_4" d="M27.9647 77.8391H29.6563C30.9848 77.8391 31.8812 78.6879 31.8812 79.9024C31.8812 81.1168 30.9848 81.9657 29.6563 81.9657H27.9647V77.8415V77.8391ZM29.6316 81.5878C30.7354 81.5878 31.4466 80.8935 31.4466 79.9024C31.4466 78.9112 30.7354 78.2169 29.6316 78.2169H28.4042V81.5878H29.6316Z" fill="white"/>
<path id="Vector_5" d="M37.0819 80.8616H34.768L34.2692 81.9632H33.8123L35.7113 77.8391H36.1435L38.0425 81.9632H37.5807L37.0819 80.8616ZM36.9214 80.5083L35.9237 78.2929L34.9285 80.5083H36.9214Z" fill="white"/>
<path id="Vector_6" d="M40.4032 77.8391H42.0948C43.4234 77.8391 44.3198 78.6879 44.3198 79.9024C44.3198 81.1168 43.4234 81.9657 42.0948 81.9657H40.4032V77.8415V77.8391ZM42.0701 81.5878C43.174 81.5878 43.8852 80.8935 43.8852 79.9024C43.8852 78.9112 43.174 78.2169 42.0701 78.2169H40.8428V81.5878H42.0701Z" fill="white"/>
<path id="Vector_7" d="M46.609 79.8999C46.609 78.6977 47.535 77.8022 48.792 77.8022C50.0489 77.8022 50.9676 78.6928 50.9676 79.8999C50.9676 81.107 50.0366 81.9975 48.792 81.9975C47.5474 81.9975 46.609 81.1021 46.609 79.8999ZM50.5305 79.8999C50.5305 78.9161 49.7897 78.1923 48.792 78.1923C47.7943 78.1923 47.0412 78.9161 47.0412 79.8999C47.0412 80.8837 47.7894 81.6075 48.792 81.6075C49.7946 81.6075 50.5305 80.8837 50.5305 79.8999Z" fill="white"/>
<path id="Vector_8" d="M60.3046 77.8391L58.4648 81.9632H58.0327L56.1929 77.8391H56.6671L58.2574 81.421L59.8576 77.8391H60.3021H60.3046Z" fill="white"/>
<path id="Vector_9" d="M65.5126 81.5854V81.9632H62.5764V77.8391H65.4237V78.2169H63.016V79.684H65.1619V80.0545H63.016V81.5854H65.5126Z" fill="white"/>
<path id="Vector_10" d="M69.0241 78.2169H67.5647V77.8391H70.9207V78.2169H69.4612V81.9657H69.0217V78.2169H69.0241Z" fill="white"/>
<path id="Vector_11" d="M76.23 81.5854V81.9632H73.2939V77.8391H76.1411V78.2169H73.7334V79.684H75.8794V80.0545H73.7334V81.5854H76.23Z" fill="white"/>
<path id="Vector_12" d="M81.7714 81.9632L80.8232 80.6384C80.717 80.6506 80.6108 80.6555 80.4898 80.6555H79.3736V81.9632H78.934V77.8391H80.4873C81.5442 77.8391 82.1838 78.369 82.1838 79.2522C82.1838 79.8999 81.8406 80.3538 81.2356 80.5476L82.2505 81.9608H81.769L81.7714 81.9632ZM81.7467 79.2522C81.7467 78.5922 81.3072 78.2144 80.4774 78.2144H79.3736V80.2826H80.4774C81.3072 80.2826 81.7467 79.8999 81.7467 79.2522Z" fill="white"/>
<path id="Vector_13" d="M84.8978 77.8391H85.3374V81.9632H84.8978V77.8391Z" fill="white"/>
<path id="Vector_14" d="M91.832 77.8391V81.9632H91.4715L88.802 78.6168V81.9632H88.3624V77.8391H88.7255L91.3999 81.1855V77.8391H91.832Z" fill="white"/>
<path id="Vector_15" d="M97.4599 80.8616H95.146L94.6472 81.9632H94.1903L96.0893 77.839H96.5215L98.4205 81.9632H97.9587L97.4599 80.8616ZM97.2993 80.5083L96.3042 78.2929L95.3065 80.5083H97.2993ZM96.3387 77.5029H95.9239L96.7363 76.7718H97.2993L96.3387 77.5029Z" fill="white"/>
<path id="Vector_16" d="M103.619 81.9632L102.67 80.6384C102.564 80.6506 102.456 80.6555 102.337 80.6555H101.223V81.9632H100.784V77.8391H102.337C103.394 77.8391 104.034 78.369 104.034 79.2522C104.034 79.8999 103.69 80.3538 103.085 80.5476L104.1 81.9608H103.619V81.9632ZM103.594 79.2522C103.594 78.5922 103.154 78.2144 102.325 78.2144H101.221V80.2826H102.325C103.154 80.2826 103.594 79.8999 103.594 79.2522Z" fill="white"/>
<path id="Vector_17" d="M106.745 77.8391H107.185V81.9632H106.745V77.8391Z" fill="white"/>
<path id="Vector_18" d="M109.842 79.8999C109.842 78.6977 110.768 77.8022 112.025 77.8022C113.282 77.8022 114.2 78.6928 114.2 79.8999C114.2 81.107 113.269 81.9975 112.025 81.9975C110.78 81.9975 109.842 81.1021 109.842 79.8999ZM113.763 79.8999C113.763 78.9161 113.022 78.1923 112.025 78.1923C111.027 78.1923 110.276 78.9161 110.276 79.8999C110.276 80.8837 111.025 81.6075 112.025 81.6075C113.025 81.6075 113.763 80.8837 113.763 79.8999Z" fill="white"/>
<path id="Vector_19" d="M126.782 77.8391V81.9632H126.421L123.752 78.6168V81.9632H123.312V77.8391H123.673L126.347 81.1855V77.8391H126.78H126.782Z" fill="white"/>
<path id="Vector_20" d="M129.439 79.8999C129.439 78.6977 130.365 77.8022 131.622 77.8022C132.879 77.8022 133.798 78.6928 133.798 79.8999C133.798 81.107 132.867 81.9975 131.622 81.9975C130.378 81.9975 129.439 81.1021 129.439 79.8999ZM133.361 79.8999C133.361 78.9161 132.62 78.1923 131.622 78.1923C130.625 78.1923 129.874 78.9161 129.874 79.8999C129.874 80.8837 130.622 81.6075 131.622 81.6075C132.622 81.6075 133.361 80.8837 133.361 79.8999Z" fill="white"/>
<path id="Vector_21" d="M139.682 77.8391H140.122V81.5878H142.446V81.9657H139.682V77.8415V77.8391Z" fill="white"/>
<path id="Vector_22" d="M147.464 80.8616H145.15L144.651 81.9632H144.194L146.093 77.8391H146.525L148.424 81.9632H147.962L147.464 80.8616ZM147.303 80.5083L146.308 78.2929L145.31 80.5083H147.303Z" fill="white"/>
<path id="Vector_23" d="M153.622 81.9632L152.674 80.6384C152.568 80.6506 152.459 80.6555 152.341 80.6555H151.227V81.9632H150.788V77.8391H152.341C153.398 77.8391 154.037 78.369 154.037 79.2522C154.037 79.8999 153.694 80.3538 153.089 80.5476L154.104 81.9608H153.622V81.9632ZM153.598 79.2522C153.598 78.5922 153.158 78.2144 152.328 78.2144H151.225V80.2826H152.328C153.158 80.2826 153.598 79.8999 153.598 79.2522Z" fill="white"/>
<path id="Vector_24" d="M34 47.3556C33.3604 51.3792 31.5182 54.7428 28.4709 57.444C25.4236 60.1452 21.7836 61.3056 17.5485 60.9254C17.3831 63.0107 17.188 64.7698 16.9608 66.2001C16.7336 67.6329 16.4817 68.5112 16.2076 68.8375C15.8249 69.5441 13.953 69.971 10.597 70.1158C7.2386 70.2605 4.86793 70.0348 3.4801 69.4362C2.86027 69.1638 2.30711 67.3459 1.8231 63.9847C1.33909 60.6211 0.946444 56.838 0.645171 52.6304C0.343899 48.4253 0.148812 44.3772 0.0574429 40.4886C-0.0339267 36.6 -0.0166405 33.9945 0.111771 32.6696C0.240182 31.438 1.29217 30.4935 3.27266 29.8409C5.25316 29.1883 7.54728 28.781 10.1575 28.6166C12.7677 28.4547 15.3952 28.5136 18.04 28.7933C20.6847 29.0754 22.7467 29.5244 24.2259 30.1402C32.017 33.4032 35.2742 39.1417 33.9975 47.3532L34 47.3556ZM22.2306 44.0926C21.8108 42.1348 20.4798 41.0382 18.235 40.8026C17.8152 40.7855 17.4769 40.7928 17.2226 40.8296C15.4717 41.1388 14.6766 42.3802 14.842 44.5563C15.0075 46.7325 15.5903 48.1456 16.5929 48.7982C17.03 49.1074 17.6967 49.1785 18.5906 49.0166C19.9217 48.8179 20.9218 48.2511 21.5886 47.3164C22.2553 46.3817 22.4677 45.3095 22.2306 44.0951V44.0926Z" fill="white"/>
<path id="Vector_25" d="M38.2425 69.2448C37.8943 68.8817 37.714 68.4377 37.6943 67.9126C37.6572 66.1535 37.9684 63.5063 38.6253 59.971C39.2821 56.4357 40.1045 52.7605 41.0898 48.943C42.0751 45.128 43.1197 41.5509 44.2235 38.2143C45.3273 34.8777 46.2904 32.5323 47.1103 31.1706C47.4387 30.6456 48.4018 30.1697 49.9971 29.7428C51.5923 29.3159 53.358 29.0215 55.294 28.8595C57.2276 28.6976 59.0896 28.7001 60.8774 28.8743C62.6653 29.046 63.9149 29.4582 64.6261 30.1108C65.6484 31.0897 66.856 33.2389 68.2537 36.5558C69.6514 39.8728 71.0145 43.4867 72.3456 47.3925C73.6766 51.3007 74.8718 55.047 75.9312 58.6364C76.9881 62.2257 77.6919 64.7649 78.0401 66.2517C78.2772 67.3385 78.2031 68.0966 77.8203 68.5235C77.4376 68.9504 76.7708 69.2448 75.8225 69.4067C74.2174 69.6791 72.2246 69.8827 69.8415 70.0176C67.461 70.1526 65.9694 70.1845 65.3669 70.1133C65.1298 70.0765 64.9101 69.9956 64.71 69.868C64.0532 69.4681 63.4185 68.3223 62.8086 66.4283C62.1961 64.5343 61.5985 63.234 61.0157 62.525C60.67 62.1079 60.2132 61.8626 59.6477 61.7914L55.1582 61.7644C53.7531 61.8012 52.8394 62.2625 52.4221 63.1506C51.8738 64.2914 51.254 65.5623 50.5601 66.9583C49.8662 68.3542 49.355 69.2154 49.0266 69.5417C48.8611 69.7404 48.6166 69.8778 48.2882 69.9489C47.54 70.1109 45.7743 70.1526 42.9912 70.0716C40.2082 69.9906 38.6253 69.7134 38.2425 69.2424V69.2448ZM55.9781 45.2605C55.3755 45.8959 54.7779 46.9607 54.1852 48.4548C53.5926 49.9514 53.3777 50.9352 53.5407 51.4062C53.8148 52.2036 54.9952 52.5618 57.0844 52.4808C59.1735 52.3998 60.3095 51.8969 60.4922 50.972C60.6009 50.4101 60.0551 49.127 58.85 47.125C57.6449 45.1231 56.6868 44.4999 55.9756 45.2629L55.9781 45.2605Z" fill="white"/>
<path id="Vector_26" d="M124.681 68.7566C124.535 69.1565 123.732 69.4779 122.273 69.7232C120.813 69.9686 119.179 70.1035 117.373 70.1305C115.568 70.1575 113.837 70.0888 112.188 69.9269C110.536 69.7649 109.474 69.4656 109 69.0289C108.251 68.4499 107.315 67.4612 106.194 66.0652C105.073 64.6692 104.209 63.5726 103.609 62.7752C102.898 63.7541 102.095 64.8508 101.201 66.0652C100.307 67.2797 99.4132 68.2684 98.5192 69.0289C98.0254 69.4288 96.9635 69.7036 95.3312 69.8582C93.6989 70.0127 91.9826 70.0716 90.1849 70.0348C88.3871 69.998 86.7548 69.868 85.2855 69.6398C83.8162 69.4141 83.0086 69.1197 82.8629 68.7566C81.769 66.183 80.8652 62.8464 80.154 58.7492C79.4428 54.6521 78.8995 50.6015 78.5266 46.5951C78.1512 42.5887 77.9611 39.0411 77.9512 35.9498C77.9413 32.8586 78.0846 31.0234 78.376 30.4444C78.5044 30.0813 79.1415 29.733 80.2923 29.3968C81.443 29.0607 82.7568 28.8031 84.2335 28.6216C85.7127 28.44 87.1795 28.3541 88.639 28.364C90.0984 28.3738 91.2023 28.5406 91.9505 28.8669C92.6617 29.1932 93.3137 31.3497 93.9063 35.3389C94.499 39.3282 95.1238 43.5774 95.7806 48.0917C96.3091 47.5299 97.5784 46.151 99.586 43.9577C101.594 41.7644 102.952 40.6407 103.666 40.5868C104.305 40.5328 105.53 41.6515 107.348 43.9454C109.163 46.2394 110.281 47.6403 110.701 48.1457C111.195 43.6314 111.723 39.3723 112.289 35.3659C112.854 31.3595 113.494 29.1932 114.205 28.8669C114.916 28.5406 115.988 28.3738 117.42 28.364C118.853 28.3541 120.295 28.4425 121.744 28.6216C123.194 28.8031 124.495 29.0607 125.644 29.3968C126.794 29.733 127.441 30.0813 127.587 30.4444C127.916 31.0259 128.108 32.8512 128.162 35.9229C128.217 38.9945 128.125 42.5298 127.888 46.5289C127.651 50.5254 127.264 54.5784 126.725 58.6854C126.187 62.7924 125.508 66.1486 124.686 68.7615L124.681 68.7566Z" fill="white"/>
<path id="Vector_27" d="M150.548 41.8895C150.165 41.9263 149.817 41.8257 149.508 41.5902C149.126 41.3179 148.928 41.0185 148.921 40.6922C148.911 40.3659 148.726 40.0568 148.36 39.7673C147.446 39.0607 146.288 39.1883 144.883 40.1476C143.478 41.1093 144.063 41.8527 146.634 42.3777C146.908 42.4317 147.209 42.4906 147.538 42.5544C147.866 42.6182 148.204 42.677 148.55 42.731C152.746 43.4572 156.06 44.6986 158.487 46.4553C161.48 48.6314 163.199 51.4724 163.646 54.9808C164.093 58.4891 163.113 61.6295 160.702 64.4043C157.855 67.6845 154 69.5662 149.138 70.0471C144.276 70.5279 140.073 69.5171 136.534 67.0147C133.487 64.8949 131.58 62.2207 130.815 58.9921C130.486 57.4685 131.252 56.2909 133.114 55.4567C133.936 55.0765 134.842 54.8041 135.838 54.6422C136.833 54.4778 137.786 54.3895 138.697 54.3699C140.194 54.3699 141.544 54.5465 142.747 54.8998C143.952 55.2531 144.636 55.7561 144.799 56.4087C144.816 56.5362 144.863 56.6638 144.935 56.7889C145.135 57.2428 145.518 57.5765 146.083 57.7948C146.757 58.0672 147.548 58.0254 148.451 57.6722C149.355 57.3189 149.615 56.7153 149.232 55.864C149.032 55.4666 148.484 55.1403 147.59 54.8851C145.454 54.2693 143.327 53.8032 141.211 53.4842C139.095 53.1677 137.087 52.3115 135.191 50.9155C133.822 49.9366 132.751 48.5946 131.975 46.892C131.2 45.1893 130.941 42.9297 131.195 40.1206C131.56 36.3326 133.393 33.2143 136.697 30.7658C138.63 29.333 140.838 28.3762 143.32 27.8978C145.802 27.4169 148.209 27.4169 150.546 27.8978C152.882 28.3787 154.983 29.3379 156.855 30.7805C158.727 32.2231 160.016 34.1392 160.727 36.5313C161.001 37.4562 160.739 38.2487 159.947 38.9111C159.154 39.5735 158.164 40.1206 156.976 40.5573C155.791 40.9916 154.576 41.3179 153.336 41.5362C152.094 41.7546 151.165 41.8723 150.543 41.8895H150.548Z" fill="white"/>
<path id="Vector_28" d="M169.308 20.415C171.156 21.757 170.597 25.6382 168.857 28.0033C167.116 30.3684 164.204 31.2001 162.357 29.8556C160.51 28.5111 160.423 25.5057 162.164 23.1407C163.905 20.7756 167.459 19.0705 169.308 20.4125V20.415Z" fill="white"/>
<path id="Vector_29" d="M160.268 14.8826C162.115 16.2246 161.557 20.1058 159.816 22.4709C158.075 24.836 155.163 25.6677 153.316 24.3232C151.469 22.9812 151.383 19.9733 153.124 17.6083C154.865 15.2432 158.418 13.5381 160.268 14.8801V14.8826Z" fill="white"/>
<path id="Vector_30" d="M141.453 19.0484C141.653 16.4527 143.579 13.516 145.663 13.6755C147.748 13.835 149.2 17.0268 149 19.6225C148.8 22.2182 146.948 24.1932 144.863 24.0362C142.779 23.8767 141.253 21.6441 141.453 19.0484Z" fill="white"/>
<path id="Vector_31" d="M169.82 41.3056C167.362 42.2084 164.782 41.3645 164.056 39.4165C163.33 37.4685 164.735 35.1574 167.192 34.2545C169.649 33.3517 173.139 33.862 173.865 35.81C174.591 37.758 172.277 40.4027 169.82 41.3056Z" fill="white"/>
<path id="Vector_32" d="M12.5652 10.6799C10.7032 9.51946 8.40418 9.99051 6.94473 11.9115C6.83608 7.9591 6.98177 7.16175 7.56456 2.81189C7.81892 -0.740624 3.18623 -0.851027 2.30958 2.05134C0.776053 7.0538 -0.172215 19.4557 2.20092 23.045C3.00349 24.2766 4.46294 24.2055 5.63099 23.8792C6.83608 23.5529 7.78434 22.466 7.6016 20.7609C7.16451 18.5136 6.94473 14.1981 8.84127 14.1981C10.155 14.1981 10.5575 18.911 10.4834 21.4503C10.5921 25.0028 15.8125 24.5686 15.7755 21.3424C15.7384 18.5872 15.447 12.5322 12.5652 10.6824V10.6799Z" fill="white"/>
<path id="Vector_33" d="M24.2802 8.28786C24.0605 8.54056 23.9148 8.83252 23.6974 9.15882C23.332 8.65097 23.0776 8.14311 22.6751 7.78001C21.7984 6.80111 20.7415 6.22211 19.4278 6.58276C18.077 6.90906 17.4201 7.88796 17.0917 9.15636C16.0693 13.2167 18.2968 18.6927 21.5441 21.7374C21.9096 22.1005 22.3467 22.4636 22.8208 22.6795C23.8431 23.1505 24.8655 23.5136 25.9965 23.1873C28.0758 22.6795 29.4636 20.1058 30.486 18.3296C32.1652 15.3929 34.3185 10.5695 32.8221 7.12496C31.1799 3.31729 26.3274 5.16715 24.2827 8.28541L24.2802 8.28786Z" fill="white"/>
<path id="Vector_34" d="M45.9571 9.73781C43.0011 6.2221 41.5787 5.93014 38.2203 8.0695C38.1462 7.96155 38.0376 7.88795 37.8919 7.7432C36.7238 6.7643 35.3014 7.23535 34.8618 8.86685C34.0593 12.0931 33.9136 18.3296 34.8248 21.4846C35.1903 22.753 36.1015 23.4793 37.1609 23.4425C39.1315 23.3689 39.6057 22.0636 39.6057 20.2874C39.6057 19.1637 39.3143 17.1691 39.3513 15.9719C39.497 11.9483 41.6504 6.83545 43.1839 12.8904C43.6951 15.1009 43.258 17.8585 43.621 19.7427C43.9124 21.4822 45.1545 21.519 46.1398 21.2295C46.9424 21.0111 47.4906 20.8296 47.7104 19.49C47.7845 18.8742 47.7474 18.2584 47.7474 17.677C47.7474 16.335 47.5276 14.5955 47.7845 13.2535C48.1845 11.151 50.3379 9.22996 51.5059 12.2378C51.9801 13.4694 52.0541 17.2403 51.9084 18.7638C51.6516 20.7216 51.8344 22.8242 54.7557 22.6794C57.3116 22.6794 57.8203 20.1426 57.966 18.2192C58.1117 15.8271 57.929 13.5062 57.235 11.2221C55.4101 5.02239 49.681 4.51454 45.9595 9.73535L45.9571 9.73781Z" fill="white"/>
<path id="Vector_35" d="M71.3553 16.8428C71.101 17.0244 70.9182 17.2427 70.6614 17.4218C70.1132 17.8217 69.602 18.256 69.0933 18.6191C66.977 20.1426 65.2237 18.8374 65.7003 16.4086C66.3942 16.5533 67.1597 16.6981 67.9623 16.5165C70.8812 16.0455 72.9629 12.5641 72.5234 9.70101C72.1579 7.56165 70.8441 6.29325 68.9106 5.7118C66.0287 4.76969 62.7073 5.89335 61.0997 9.26431C59.3118 13.1088 59.2748 18.4743 62.7048 21.7741C64.5668 23.2977 66.6831 23.9503 68.9081 23.1873C70.9874 22.4268 72.2665 20.8296 73.1778 18.9086C73.3235 18.6191 73.3605 18.256 73.3605 17.9297C73.2519 16.8428 72.2295 16.335 71.3528 16.8428H71.3553ZM65.5151 11.2957C65.6978 9.04841 70.333 8.43261 69.602 11.2589C68.9822 13.3983 65.2953 13.6878 65.5151 11.2957Z" fill="white"/>
<path id="Vector_36" d="M71.0343 61.6417C71.5109 61.6417 71.5109 60.9057 71.0343 60.9057C70.5577 60.9057 70.5577 61.6417 71.0343 61.6417Z" fill="white"/>
</g>
</svg>
