<svg width="51" height="51" viewBox="0 0 51 51" fill="none" xmlns="http://www.w3.org/2000/svg">
<g id="&#240;&#159;&#166;&#134; icon &#34;vaccine&#34;">
<path id="Vector" d="M48.615 16.3503L35.1152 2.8504L37.5001 0.465454L51 13.9653L48.615 16.3503ZM37.5001 16.3503L35.1151 13.9653L41.415 7.6654L43.8 10.0504L37.5001 16.3503ZM35.1422 26.0546L30.1921 21.3295L32.5231 18.886L37.4731 23.611L35.1422 26.0546ZM30.1652 30.7502L25.4402 26.0252L27.8252 23.6402L32.5502 28.3652L30.1652 30.7502ZM46.365 27.6002L23.8652 5.10037L26.2502 2.71538L48.75 25.2152L46.365 27.6002ZM30.6827 7.14564L44.3198 20.7828L23.6673 41.4353L14.8609 43.5706L7.88581 36.5956L10.021 27.7892L30.6827 7.14564ZM39.5453 20.7828L30.6826 11.9201L13.0855 29.5172L11.6208 35.5606L15.8958 39.8356L21.9393 38.3709L39.5453 20.7828ZM2.85042 51L0.465424 48.615L11.4904 37.5901L13.8753 39.9751L2.85042 51ZM25.4402 35.4752L20.7152 30.7502L23.1002 28.3652L27.8252 33.0902L25.4402 35.4752Z" fill="#FF7D99"/>
</g>
</svg>
