<svg width="36" height="36" viewBox="0 0 36 36" fill="none" xmlns="http://www.w3.org/2000/svg">
<path fill-rule="evenodd" clip-rule="evenodd" d="M8.66669 33.3908C11.375 35.0158 14.625 35.8283 17.875 35.8283C27.8958 35.8283 35.75 27.7033 35.75 18.2241C35.75 13.3491 34.125 9.01578 30.6042 5.49495C27.0833 2.24495 22.75 0.349121 17.875 0.349121C8.12502 0.349121 0 8.47412 0 18.2241C0 21.4741 0.812526 24.7241 2.70836 27.7033L3.25003 28.5158L1.35417 35.0158L8.12502 33.1199L8.66669 33.3908ZM23.8334 20.6616C24.375 20.6616 27.0833 22.0158 27.625 22.2866C27.7092 22.3289 27.7937 22.3643 27.8772 22.3995C28.3289 22.5902 28.7506 22.7684 28.9792 23.9116C29.25 23.9116 29.25 24.9949 28.7083 26.3491C28.4375 27.4324 26.2708 28.7866 25.1875 28.7866C25.0039 28.7866 24.8281 28.802 24.6404 28.8188C23.7201 28.9001 22.5117 29.0071 18.6875 27.4324C13.9412 25.5339 10.6505 20.9322 9.72646 19.64C9.59592 19.4575 9.51277 19.341 9.47919 19.3074C9.43315 19.2154 9.33971 19.068 9.21675 18.8738C8.61767 17.9278 7.31252 15.867 7.31252 13.6199C7.31252 10.9116 8.66669 9.55745 9.20836 9.01578C9.75002 8.47411 10.2917 8.47411 10.5625 8.47411H11.6459C11.9167 8.47411 12.4584 8.47412 12.7292 9.28662C13.2709 10.3699 14.3542 13.0783 14.3542 13.3491C14.3542 13.4393 14.3842 13.5298 14.4143 13.6199C14.4747 13.8006 14.5348 13.981 14.3542 14.1616C14.2188 14.297 14.1511 14.4324 14.0834 14.5679C14.0156 14.7033 13.9479 14.8387 13.8125 14.9741L13 15.7866C12.7292 16.0574 12.4584 16.3283 12.7292 16.8699C13 17.4116 14.0834 19.3074 15.7084 20.6616C17.5367 22.2614 18.9795 22.8971 19.7107 23.2191C19.8461 23.2787 19.9572 23.3277 20.0417 23.3699C20.5833 23.3699 20.8542 23.3699 21.125 23.0991C21.2604 22.8283 21.599 22.422 21.9375 22.0158C22.2761 21.6095 22.6146 21.2033 22.75 20.9324C23.0208 20.3908 23.2917 20.3908 23.8334 20.6616Z" fill="#77D5D0"/>
</svg>
