<svg width="38" height="54" viewBox="0 0 38 54" fill="none" xmlns="http://www.w3.org/2000/svg">
<g id="&#240;&#159;&#166;&#134; icon &#34;Clinical Document&#34;">
<g id="Group">
<path id="Vector" d="M25.873 14.8219V18.8642H29.9153V21.5591H25.873V25.6015H23.1781V21.5591H19.1357V18.8642H23.1781V14.8219H25.873Z" fill="#FF7D99"/>
<path id="Vector_2" d="M28.5679 29.6439C29.3121 29.6439 29.9153 30.2472 29.9153 30.9914C29.9153 31.7356 29.3121 32.3388 28.5679 32.3388H9.70359C8.9594 32.3388 8.35614 31.7356 8.35614 30.9914C8.35614 30.2472 8.9594 29.6439 9.70359 29.6439H28.5679Z" fill="#FF7D99"/>
<path id="Vector_3" d="M29.9153 37.7286C29.9153 36.9844 29.3121 36.3811 28.5679 36.3811H9.70359C8.9594 36.3811 8.35614 36.9844 8.35614 37.7286C8.35614 38.4727 8.9594 39.076 9.70359 39.076H28.5679C29.3121 39.076 29.9153 38.4727 29.9153 37.7286Z" fill="#FF7D99"/>
<path id="Vector_4" d="M28.5679 43.1183C29.3121 43.1183 29.9153 43.7215 29.9153 44.4657C29.9153 45.2099 29.3121 45.8132 28.5679 45.8132H9.70359C8.9594 45.8132 8.35614 45.2099 8.35614 44.4657C8.35614 43.7215 8.9594 43.1183 9.70359 43.1183H28.5679Z" fill="#FF7D99"/>
<path id="Vector_5" fill-rule="evenodd" clip-rule="evenodd" d="M28.5679 4.04234C28.5679 1.80982 26.7581 0 24.5255 0H13.7459C11.5133 0 9.70359 1.80982 9.70359 4.04234H4.3138C2.08121 4.04234 0.271454 5.85217 0.271454 8.08469V49.8556C0.271454 52.0882 2.08121 53.8979 4.3138 53.8979H33.9577C36.1902 53.8979 38 52.0882 38 49.8556V8.08469C38 5.85217 36.1902 4.04234 33.9577 4.04234H28.5679ZM13.7459 10.7796C11.5133 10.7796 9.70359 8.96983 9.70359 6.73724H4.3138C3.5696 6.73724 2.96635 7.34052 2.96635 8.08469V49.8556C2.96635 50.5998 3.5696 51.203 4.3138 51.203H33.9577C34.7019 51.203 35.3051 50.5998 35.3051 49.8556V8.08469C35.3051 7.34052 34.7019 6.73724 33.9577 6.73724H28.5679C28.5679 8.96983 26.7581 10.7796 24.5255 10.7796H13.7459ZM24.5255 2.6949C25.2697 2.6949 25.873 3.29818 25.873 4.04234V6.73724C25.873 7.48141 25.2697 8.08469 24.5255 8.08469H13.7459C13.0017 8.08469 12.3985 7.48141 12.3985 6.73724V4.04234C12.3985 3.29818 13.0017 2.6949 13.7459 2.6949H24.5255Z" fill="#FF7D99"/>
</g>
</g>
</svg>
