<svg width="217" height="242" viewBox="0 0 217 242" fill="none" xmlns="http://www.w3.org/2000/svg">
<path d="M210.367 28.1913C188.751 -22.0958 124.852 2.32916 97.9474 43.5165C95.0602 46.8675 93.1366 50.6988 90.2603 55.0104C85.4495 48.3047 82.0914 41.6027 76.8096 36.8108C65.2789 23.8798 51.3429 16.2172 34.0487 21.0054C16.269 25.3169 7.62553 38.2444 3.30017 55.0068C-10.1505 108.645 19.1562 180.959 61.9136 221.19C66.7171 225.978 72.4843 230.766 78.7332 233.641C92.1839 239.866 105.638 244.654 120.531 240.346C147.917 233.641 166.172 199.639 179.622 176.171C201.727 137.378 230.07 73.683 210.371 28.1877L210.367 28.1913ZM175.677 29.7441C177.391 24.4142 182.777 19.1963 186.925 20.5251C191.073 21.8504 192.414 29.2168 190.7 34.5467C188.987 39.8766 184.234 43.1229 180.086 41.7977C175.938 40.4724 173.964 35.0775 175.677 29.7477V29.7441ZM156.007 25.1364C157.72 19.8065 163.107 14.5886 167.255 15.9174C171.403 17.2427 172.743 24.6092 171.029 29.9391C169.316 35.2689 164.563 38.5152 160.415 37.19C156.267 35.8647 154.293 30.4699 156.007 25.14V25.1364ZM140.151 22.4787C144.009 21.5181 148.562 26.4327 149.772 31.2571C150.982 36.0814 148.83 40.7685 144.972 41.729C141.114 42.6896 137.006 39.5588 135.8 34.7345C134.59 29.9102 136.292 23.4392 140.151 22.4787ZM106.048 163.72C102.005 149.262 91.4775 123.349 84.0838 125.631C73.4044 128.928 82.2073 152.909 88.6156 164.84C92.6295 174.145 89.1989 181.934 82.9934 185.87C76.9944 189.741 68.9052 192.688 62.2287 187.12C42.5798 170.975 26.1659 99.3104 26.0138 68.3965C25.8544 50.4966 52.1254 43.0579 56.9216 63.5649C61.2687 89.1454 61.8447 93.9047 69.3942 116.026C74.2376 102.64 86.3515 95.9847 98.8603 99.2996C118.328 104.731 130.594 138.414 135.633 153.909C141.498 172.065 112.891 183.588 106.044 163.717L106.048 163.72ZM182.426 92.0053C178.945 98.9782 173.304 103.626 165.512 105.944C166.711 109.775 167.621 113.05 168.24 115.766C168.859 118.481 169.041 120.225 168.787 121.002C168.613 122.533 165.592 124.616 159.731 127.253C153.869 129.889 149.493 131.167 146.602 131.08C145.305 131.037 143.023 128.188 139.763 122.533C136.499 116.882 133.097 110.411 129.554 103.127C126.012 95.8438 122.769 88.7662 119.828 81.8981C116.886 75.0299 115.053 70.3717 114.336 67.9234C113.68 65.634 114.879 63.2074 117.93 60.6436C120.98 58.0798 124.765 55.7254 129.286 53.5876C133.807 51.4499 138.517 49.695 143.418 48.3192C148.319 46.947 152.304 46.2862 155.373 46.3367C171.547 46.6364 181.437 54.559 185.042 70.1009C186.784 77.7273 185.915 85.0288 182.433 92.0017L182.426 92.0053ZM200.488 58.0653C196.598 61.1744 191.425 61.1889 188.939 58.0942C186.451 54.9996 187.592 49.973 191.483 46.8639C195.373 43.7548 201.984 42.5921 204.469 45.6831C206.955 48.7742 204.379 54.9526 200.488 58.0653Z" fill="#FF7D99"/>
</svg>
