<svg width="38" height="38" viewBox="0 0 38 38" fill="none" xmlns="http://www.w3.org/2000/svg">
<g id="&#240;&#159;&#166;&#134; icon &#34;Instagram icon&#34;">
<path id="Vector" d="M18.8462 37.6925C29.2547 37.6925 37.6925 29.2547 37.6925 18.8462C37.6925 8.43774 29.2547 0 18.8462 0C8.43774 0 0 8.43774 0 18.8462C0 29.2547 8.43774 37.6925 18.8462 37.6925Z" fill="#77D5D0"/>
<path id="Vector_2" d="M19 8C16.0125 8 15.6385 8.0129 14.465 8.06448C13.2915 8.12036 12.4963 8.3052 11.7956 8.57601C11.0735 8.85541 10.4588 9.23368 9.84408 9.84408C9.22939 10.4545 8.85541 11.0692 8.57601 11.7956C8.3052 12.4963 8.12036 13.2958 8.06448 14.465C8.0086 15.6385 8 16.0125 8 19C8 21.9875 8.0129 22.3615 8.06448 23.535C8.12036 24.7042 8.3052 25.5037 8.57601 26.2044C8.85541 26.9265 9.23368 27.5412 9.84408 28.1559C10.4545 28.7663 11.0692 29.1446 11.7956 29.424C12.4963 29.6948 13.2958 29.8796 14.465 29.9355C15.6385 29.9914 16.0125 30 19 30C21.9875 30 22.3615 29.9871 23.535 29.9355C24.7042 29.8796 25.5037 29.6948 26.2044 29.424C26.9265 29.1446 27.5412 28.7663 28.1559 28.1559C28.7663 27.5455 29.1446 26.9308 29.424 26.2044C29.6948 25.5037 29.8796 24.7042 29.9355 23.535C29.9914 22.3615 30 21.9875 30 19C30 16.0125 29.9871 15.6385 29.9355 14.465C29.8796 13.2958 29.6948 12.4963 29.424 11.7956C29.1446 11.0735 28.7663 10.4588 28.1559 9.84408C27.5455 9.23368 26.9308 8.85541 26.2044 8.57601C25.5037 8.3052 24.7042 8.12036 23.535 8.06448C22.3615 8.0129 21.9875 8 19 8ZM19 9.98163C21.9359 9.98163 22.2884 9.99453 23.449 10.0461C24.5236 10.0977 25.1039 10.2739 25.4908 10.4287C26.0066 10.6264 26.372 10.8671 26.7589 11.2497C27.1415 11.6366 27.3822 12.002 27.5799 12.5178C27.7304 12.9047 27.9109 13.485 27.9582 14.5596C28.0098 15.7202 28.0227 16.0684 28.0227 19.0086C28.0227 21.9488 28.0098 22.297 27.9539 23.4576C27.898 24.5322 27.7175 25.1125 27.567 25.4994C27.3607 26.0152 27.1286 26.3806 26.7417 26.7675C26.3591 27.1501 25.9851 27.3908 25.4779 27.5885C25.0911 27.739 24.5021 27.9195 23.4275 27.9668C22.2583 28.0184 21.9144 28.0313 18.9699 28.0313C16.0254 28.0313 15.6815 28.0184 14.5123 27.9625C13.4377 27.9066 12.8488 27.7261 12.4619 27.5756C11.9418 27.3693 11.5807 27.1372 11.1981 26.7503C10.8113 26.3677 10.5662 25.9937 10.3728 25.4865C10.2224 25.0996 10.0418 24.5107 9.98593 23.4361C9.94295 22.2798 9.93005 21.923 9.93005 18.9957C9.93005 16.0641 9.94295 15.7073 9.98593 14.5381C10.0418 13.4635 10.2181 12.8746 10.3728 12.4877C10.5662 11.9633 10.8113 11.6065 11.1981 11.2196C11.5807 10.837 11.9418 10.5877 12.4619 10.3943C12.8488 10.2438 13.4248 10.0633 14.4994 10.0074C15.6686 9.96444 16.0125 9.95154 18.957 9.95154L19 9.98163ZM19 13.3517C15.8792 13.3517 13.3474 15.8835 13.3474 19.0043C13.3474 22.125 15.8792 24.6569 19 24.6569C22.1207 24.6569 24.6526 22.125 24.6526 19.0043C24.6526 15.8835 22.1207 13.3517 19 13.3517ZM19 22.671C16.9754 22.671 15.3333 21.0289 15.3333 19.0043C15.3333 16.9797 16.9754 15.3376 19 15.3376C21.0246 15.3376 22.6667 16.9797 22.6667 19.0043C22.6667 21.0289 21.0246 22.671 19 22.671ZM26.1958 13.1325C26.1958 13.8632 25.6026 14.4521 24.8761 14.4521C24.1454 14.4521 23.5565 13.8589 23.5565 13.1325C23.5565 12.406 24.1497 11.8128 24.8761 11.8128C25.6026 11.8085 26.1958 12.4017 26.1958 13.1325Z" fill="#E6718A"/>
</g>
</svg>
