<svg width="148" height="148" viewBox="0 0 148 148" fill="none" xmlns="http://www.w3.org/2000/svg">
<path d="M147.878 69.6356C145.363 26.7167 106.37 -6.36054 61.4576 1.03931C30.5295 6.14521 5.74278 31.2306 0.933405 62.1617C-1.87823 80.0694 1.82144 97.015 9.88638 111.001L3.30117 135.494C1.82136 141.044 6.92655 146.076 12.4018 144.522L36.5228 137.862C47.4733 144.3 60.2737 148 73.9619 148C115.692 148 150.32 111.223 147.878 69.6356ZM110.143 101.529C109.477 102.861 108.663 104.119 107.628 105.303C105.778 107.301 103.78 108.781 101.56 109.669C99.3406 110.631 96.8989 111.075 94.3093 111.075C90.5358 111.075 86.4663 110.187 82.2488 108.338C77.9574 106.488 73.74 104.045 69.5225 101.011C65.2311 97.903 61.2356 94.4251 57.3881 90.6511C53.5406 86.8032 50.1368 82.7333 47.0292 78.5154C43.9956 74.2975 41.5541 70.0796 39.7783 65.8616C38.0026 61.6437 37.1148 57.5742 37.1148 53.7263C37.1148 51.2102 37.5587 48.7683 38.4466 46.5483C39.3345 44.2544 40.7404 42.1825 42.7382 40.3325C45.1059 37.9646 47.6954 36.8546 50.433 36.8546C51.4688 36.8546 52.5045 37.0765 53.4664 37.5205C54.4283 37.9645 55.3163 38.6305 55.9823 39.5925L64.5652 51.7281C65.2311 52.6901 65.749 53.5041 66.045 54.3181C66.4149 55.1321 66.5629 55.8721 66.5629 56.6121C66.5629 57.5 66.2669 58.3882 65.749 59.2758C65.2311 60.1638 64.5652 61.0517 63.6773 61.9397L60.8656 64.8997C60.4217 65.3437 60.2737 65.7876 60.2737 66.3796C60.2737 66.6756 60.3477 66.9716 60.4217 67.2676C60.5697 67.5636 60.6437 67.7856 60.7177 68.0076C61.3836 69.2656 62.5674 70.8195 64.1952 72.7435C65.897 74.6675 67.6728 76.6654 69.5965 78.5894C71.5942 80.5874 73.518 82.3633 75.5157 84.0653C77.4395 85.6933 79.0673 86.8032 80.3251 87.4692C80.5471 87.5432 80.769 87.6912 80.991 87.7652C81.287 87.9132 81.5829 87.9132 81.9529 87.9132C82.6188 87.9132 83.0627 87.6912 83.5067 87.2472L86.3183 84.4353C87.2802 83.4733 88.1681 82.8073 88.982 82.3633C89.8699 81.8453 90.6837 81.5493 91.6456 81.5493C92.3855 81.5493 93.1254 81.6973 93.9393 82.0673C94.7532 82.4373 95.6411 82.8813 96.529 83.5473L108.811 92.2791C109.773 92.9451 110.439 93.7591 110.883 94.6471C111.253 95.609 111.475 96.497 111.475 97.533C111.031 98.791 110.735 100.197 110.143 101.529Z" fill="#FF7D99"/>
</svg>
